<svg width="54" height="54" viewBox="0 0 54 54" fill="none" xmlns="http://www.w3.org/2000/svg">
<path d="M20.1988 21.7163C19.6983 20.1647 21.1647 18.6983 22.7163 19.1988L26.386 20.3827C26.7852 20.5114 27.2148 20.5114 27.614 20.3827L31.2837 19.1988C32.8353 18.6983 34.3017 20.1647 33.8012 21.7163L32.6173 25.386C32.4886 25.7852 32.4886 26.2148 32.6173 26.614L33.8012 30.2837C34.3017 31.8353 32.8353 33.3017 31.2837 32.8012L27.614 31.6173C27.2148 31.4886 26.7852 31.4886 26.386 31.6173L22.7163 32.8012C21.1647 33.3017 19.6983 31.8353 20.1988 30.2837L21.3827 26.614C21.5114 26.2148 21.5114 25.7852 21.3827 25.386L20.1988 21.7163Z" fill="#7E4CBD"/>
<g filter="url(#filter0_d_60_735)">
<path d="M25.2199 18.1618C25.9631 16.7108 28.0369 16.7108 28.7801 18.1618L30.5379 21.5937C30.7291 21.9671 31.0329 22.2709 31.4062 22.4621L34.8382 24.2199C36.2892 24.9631 36.2892 27.0369 34.8382 27.7801L31.4062 29.5379C31.0329 29.7291 30.7291 30.0329 30.5379 30.4062L28.7801 33.8382C28.0369 35.2892 25.9631 35.2892 25.2199 33.8382L23.4621 30.4062C23.2709 30.0329 22.9671 29.7291 22.5937 29.5379L19.1618 27.7801C17.7108 27.0369 17.7108 24.9631 19.1618 24.2199L22.5937 22.4621C22.9671 22.2709 23.2709 21.9671 23.4621 21.5937L25.2199 18.1618Z" fill="#B57AFF"/>
</g>
<defs>
<filter id="filter0_d_60_735" x="0.973486" y="0.973516" width="52.0529" height="52.0529" filterUnits="userSpaceOnUse" color-interpolation-filters="sRGB">
<feFlood flood-opacity="0" result="BackgroundImageFix"/>
<feColorMatrix in="SourceAlpha" type="matrix" values="0 0 0 0 0 0 0 0 0 0 0 0 0 0 0 0 0 0 127 0" result="hardAlpha"/>
<feOffset dy="1"/>
<feGaussianBlur stdDeviation="8.55"/>
<feComposite in2="hardAlpha" operator="out"/>
<feColorMatrix type="matrix" values="0 0 0 0 0 0 0 0 0 0 0 0 0 0 0 0 0 0 0.5 0"/>
<feBlend mode="normal" in2="BackgroundImageFix" result="effect1_dropShadow_60_735"/>
<feBlend mode="normal" in="SourceGraphic" in2="effect1_dropShadow_60_735" result="shape"/>
</filter>
</defs>
</svg>
