<svg width="512" height="512" viewBox="0 0 512 512" fill="none" xmlns="http://www.w3.org/2000/svg">
<rect width="512" height="512" rx="130" fill="url(#paint0_linear_9_117)"/>
<g filter="url(#filter0_d_9_117)">
<path d="M338.5 205.535C338.5 217.165 336.095 222.561 333.782 225.211C331.593 227.718 327.916 229.561 320.781 230.229C313.505 230.911 304.48 230.222 293.148 229.195C292.343 229.122 291.53 229.047 290.707 228.972C280.289 228.021 268.431 226.938 256 226.938C243.569 226.938 231.711 228.021 221.293 228.972C220.47 229.047 219.657 229.122 218.852 229.195C207.52 230.222 198.495 230.911 191.219 230.229C184.084 229.561 180.407 227.718 178.218 225.211C175.905 222.561 173.5 217.165 173.5 205.535C173.5 160.495 210.077 125.5 256 125.5C301.923 125.5 338.5 160.495 338.5 205.535Z" stroke="#D9D9D9" stroke-width="21" shape-rendering="crispEdges"/>
</g>
<g filter="url(#filter1_d_9_117)">
<path d="M107.645 260.767C104.137 236.077 123.299 214 148.237 214H362.471C387.85 214 407.134 236.825 402.895 261.848L385.785 362.848C382.445 382.568 365.362 397 345.361 397H162.587C142.171 397 124.866 381.98 121.994 361.767L107.645 260.767Z" fill="#D9D9D9"/>
</g>
<defs>
<filter id="filter0_d_9_117" x="65.7" y="17.7" width="380.6" height="320.6" filterUnits="userSpaceOnUse" color-interpolation-filters="sRGB">
<feFlood flood-opacity="0" result="BackgroundImageFix"/>
<feColorMatrix in="SourceAlpha" type="matrix" values="0 0 0 0 0 0 0 0 0 0 0 0 0 0 0 0 0 0 127 0" result="hardAlpha"/>
<feOffset/>
<feGaussianBlur stdDeviation="48.65"/>
<feComposite in2="hardAlpha" operator="out"/>
<feColorMatrix type="matrix" values="0 0 0 0 1 0 0 0 0 1 0 0 0 0 1 0 0 0 0.5 0"/>
<feBlend mode="normal" in2="BackgroundImageFix" result="effect1_dropShadow_9_117"/>
<feBlend mode="normal" in="SourceGraphic" in2="effect1_dropShadow_9_117" result="shape"/>
</filter>
<filter id="filter1_d_9_117" x="9.92924" y="116.7" width="490.852" height="377.6" filterUnits="userSpaceOnUse" color-interpolation-filters="sRGB">
<feFlood flood-opacity="0" result="BackgroundImageFix"/>
<feColorMatrix in="SourceAlpha" type="matrix" values="0 0 0 0 0 0 0 0 0 0 0 0 0 0 0 0 0 0 127 0" result="hardAlpha"/>
<feOffset/>
<feGaussianBlur stdDeviation="48.65"/>
<feComposite in2="hardAlpha" operator="out"/>
<feColorMatrix type="matrix" values="0 0 0 0 1 0 0 0 0 1 0 0 0 0 1 0 0 0 0.5 0"/>
<feBlend mode="normal" in2="BackgroundImageFix" result="effect1_dropShadow_9_117"/>
<feBlend mode="normal" in="SourceGraphic" in2="effect1_dropShadow_9_117" result="shape"/>
</filter>
<linearGradient id="paint0_linear_9_117" x1="167" y1="-67" x2="350" y2="566" gradientUnits="userSpaceOnUse">
<stop stop-color="#3F2B4F"/>
<stop offset="0.0001" stop-color="#1C2432"/>
<stop offset="1" stop-color="#3D264F"/>
</linearGradient>
</defs>
</svg>
