<svg width="512" height="512" viewBox="0 0 512 512" fill="none" xmlns="http://www.w3.org/2000/svg">
<rect width="512" height="512" rx="130" fill="url(#paint0_linear_41_233)"/>
<g filter="url(#filter0_f_41_233)">
<path d="M388 222.591C413.333 237.217 413.333 273.783 388 288.409L195.25 399.693C169.917 414.319 138.25 396.037 138.25 366.784V144.216C138.25 114.963 169.917 96.6806 195.25 111.307L388 222.591Z" fill="url(#paint1_linear_41_233)"/>
</g>
<path d="M388 222.591C413.333 237.217 413.333 273.783 388 288.409L195.25 399.693C169.917 414.319 138.25 396.037 138.25 366.784V144.216C138.25 114.963 169.917 96.6806 195.25 111.307L388 222.591Z" fill="url(#paint2_linear_41_233)"/>
<defs>
<filter id="filter0_f_41_233" x="82.55" y="50.4591" width="380.15" height="410.082" filterUnits="userSpaceOnUse" color-interpolation-filters="sRGB">
<feFlood flood-opacity="0" result="BackgroundImageFix"/>
<feBlend mode="normal" in="SourceGraphic" in2="BackgroundImageFix" result="shape"/>
<feGaussianBlur stdDeviation="27.85" result="effect1_foregroundBlur_41_233"/>
</filter>
<linearGradient id="paint0_linear_41_233" x1="167" y1="-67" x2="350" y2="566" gradientUnits="userSpaceOnUse">
<stop stop-color="#2B424F"/>
<stop offset="0.0001" stop-color="#37608F"/>
<stop offset="1" stop-color="#263B4F"/>
</linearGradient>
<linearGradient id="paint1_linear_41_233" x1="247.5" y1="85" x2="247.5" y2="444" gradientUnits="userSpaceOnUse">
<stop stop-color="#9E00FF"/>
<stop offset="0.3125" stop-color="#3F3CCC"/>
<stop offset="0.65625" stop-color="#00FFA3"/>
<stop offset="1" stop-color="#FAFF00"/>
</linearGradient>
<linearGradient id="paint2_linear_41_233" x1="247.5" y1="85" x2="247.5" y2="444" gradientUnits="userSpaceOnUse">
<stop stop-color="#9E00FF"/>
<stop offset="0.3125" stop-color="#3F3CCC"/>
<stop offset="0.65625" stop-color="#00FFA3"/>
<stop offset="1" stop-color="#FAFF00"/>
</linearGradient>
</defs>
</svg>
