<svg width="512" height="512" viewBox="0 0 512 512" fill="none" xmlns="http://www.w3.org/2000/svg">
<path d="M0 130C0 58.203 58.203 0 130 0H256V256H0V130Z" fill="url(#paint0_linear_33_193)"/>
<path d="M130 512C58.203 512 0 453.797 0 382L0 256H256V512H130Z" fill="url(#paint1_linear_33_193)"/>
<path d="M382 0C453.797 0 512 58.203 512 130L512 256L256 256L256 0L382 0Z" fill="url(#paint2_linear_33_193)"/>
<path d="M512 382C512 453.797 453.797 512 382 512L256 512V256L512 256V382Z" fill="url(#paint3_linear_33_193)"/>
<path d="M128.5 80L128.5 175" stroke="white" stroke-width="17" stroke-linecap="round"/>
<path d="M81 127.5L176 127.5" stroke="white" stroke-width="17" stroke-linecap="round"/>
<path d="M336 127.5L431 127.5" stroke="white" stroke-width="17" stroke-linecap="round"/>
<path d="M336 356H431" stroke="white" stroke-width="17" stroke-linecap="round"/>
<path d="M336 409H431" stroke="white" stroke-width="17" stroke-linecap="round"/>
<path d="M94.9124 349.912L162.087 417.088" stroke="white" stroke-width="17" stroke-linecap="round"/>
<path d="M94.9124 417.088L162.087 349.912" stroke="white" stroke-width="17" stroke-linecap="round"/>
<defs>
<linearGradient id="paint0_linear_33_193" x1="89" y1="0" x2="89" y2="256" gradientUnits="userSpaceOnUse">
<stop stop-color="#888888"/>
<stop offset="0.0001" stop-color="#B7B7B7"/>
<stop offset="1" stop-color="#636363"/>
</linearGradient>
<linearGradient id="paint1_linear_33_193" x1="128" y1="256" x2="128" y2="512" gradientUnits="userSpaceOnUse">
<stop stop-color="#888888"/>
<stop offset="0.0001" stop-color="#444444"/>
<stop offset="1" stop-color="#A9A9A9"/>
</linearGradient>
<linearGradient id="paint2_linear_33_193" x1="384" y1="256" x2="384" y2="4.97699e-06" gradientUnits="userSpaceOnUse">
<stop stop-color="#888888"/>
<stop offset="0.0001" stop-color="#444444"/>
<stop offset="1" stop-color="#A9A9A9"/>
</linearGradient>
<linearGradient id="paint3_linear_33_193" x1="423" y1="512" x2="423" y2="256" gradientUnits="userSpaceOnUse">
<stop stop-color="#A83C00"/>
<stop offset="0.0001" stop-color="#FF5C00"/>
<stop offset="1" stop-color="#FFA877"/>
</linearGradient>
</defs>
</svg>
