<svg width="512" height="512" viewBox="0 0 512 512" fill="none" xmlns="http://www.w3.org/2000/svg">
<rect x="17.5" y="17.5" width="477" height="477" rx="112.5" fill="url(#paint0_linear_8_100)" stroke="url(#paint1_linear_8_100)" stroke-width="35"/>
<g filter="url(#filter0_d_8_100)">
<path d="M101.641 223.321C100.115 220.975 99.3522 218.337 99.3522 215.406C99.3522 213.178 99.8804 211.184 100.937 209.426C101.993 207.667 103.519 206.377 105.515 205.556L175.77 174.072L105.339 142.589C103.226 141.768 101.641 140.537 100.585 138.895C99.5282 137.253 99 135.377 99 133.267C99 130.57 99.8804 127.814 101.641 125L194.611 168.268C195.902 168.854 196.9 169.675 197.604 170.73C198.309 171.669 198.661 172.783 198.661 174.072C198.661 176.769 197.311 178.704 194.611 179.877L101.641 223.321Z" fill="white"/>
<path d="M214.552 249C214.552 244.661 215.608 241.261 217.721 238.799C219.834 236.453 222.828 235.281 226.701 235.281H304C304 239.619 302.944 242.961 300.831 245.306C298.835 247.769 295.842 249 291.851 249H214.552Z" fill="white"/>
</g>
<defs>
<filter id="filter0_d_8_100" x="69.7" y="95.7" width="263.6" height="182.6" filterUnits="userSpaceOnUse" color-interpolation-filters="sRGB">
<feFlood flood-opacity="0" result="BackgroundImageFix"/>
<feColorMatrix in="SourceAlpha" type="matrix" values="0 0 0 0 0 0 0 0 0 0 0 0 0 0 0 0 0 0 127 0" result="hardAlpha"/>
<feOffset/>
<feGaussianBlur stdDeviation="14.65"/>
<feComposite in2="hardAlpha" operator="out"/>
<feColorMatrix type="matrix" values="0 0 0 0 0.666667 0 0 0 0 0.666667 0 0 0 0 0.666667 0 0 0 0.75 0"/>
<feBlend mode="normal" in2="BackgroundImageFix" result="effect1_dropShadow_8_100"/>
<feBlend mode="normal" in="SourceGraphic" in2="effect1_dropShadow_8_100" result="shape"/>
</filter>
<linearGradient id="paint0_linear_8_100" x1="167" y1="-67" x2="350" y2="566" gradientUnits="userSpaceOnUse">
<stop stop-color="#3F2B4F"/>
<stop offset="0.0001" stop-color="#1C2432"/>
<stop offset="1" stop-color="#3D264F"/>
</linearGradient>
<linearGradient id="paint1_linear_8_100" x1="256" y1="0" x2="256" y2="512" gradientUnits="userSpaceOnUse">
<stop stop-color="#9D9D9D"/>
<stop offset="1" stop-color="#444444"/>
</linearGradient>
</defs>
</svg>
