<svg width="576" height="540" viewBox="0 0 576 540" fill="none" xmlns="http://www.w3.org/2000/svg">
<rect x="32" y="28" width="512" height="512" rx="130" fill="url(#paint0_linear_9_128)"/>
<g filter="url(#filter0_d_9_128)">
<path d="M32 158C32 86.203 90.203 28 162 28H414C485.797 28 544 86.203 544 158V162H32V158Z" fill="url(#paint1_linear_9_128)"/>
</g>
<path d="M275.351 121C274.199 121 273.239 120.616 272.471 119.848C271.703 119.08 271.319 118.12 271.319 116.968C271.319 115.816 271.703 114.856 272.471 114.088C273.239 113.256 274.199 112.84 275.351 112.84H286.775V64.168L276.983 68.968C276.087 69.352 275.351 69.544 274.775 69.544C273.559 69.544 272.567 69.16 271.799 68.392C271.031 67.624 270.647 66.632 270.647 65.416C270.647 63.624 271.479 62.312 273.143 61.48L286.199 54.664C287.095 54.216 287.991 53.992 288.887 53.992H290.903C292.183 53.992 293.271 54.44 294.167 55.336C295.063 56.232 295.511 57.32 295.511 58.6V112.84H305.015C306.167 112.84 307.127 113.256 307.895 114.088C308.727 114.856 309.143 115.816 309.143 116.968C309.143 118.12 308.727 119.08 307.895 119.848C307.127 120.616 306.167 121 305.015 121H275.351Z" fill="white"/>
<g filter="url(#filter1_d_9_128)">
<path d="M183.443 373.6C175.656 373.6 168.563 371.787 162.163 368.16C159.816 366.773 158.643 364.8 158.643 362.24C158.643 360.533 159.176 359.04 160.243 357.76C161.416 356.373 162.909 355.68 164.723 355.68C165.789 355.68 166.749 355.893 167.603 356.32C172.509 358.667 177.469 359.84 182.483 359.84C188.243 359.84 192.883 358.187 196.403 354.88C200.029 351.573 201.843 345.333 201.843 336.16V266.88C201.843 264.853 202.536 263.147 203.923 261.76C205.309 260.267 207.016 259.52 209.043 259.52C211.069 259.52 212.776 260.267 214.163 261.76C215.656 263.147 216.403 264.853 216.403 266.88V335.2C216.403 349.173 213.256 359.093 206.963 364.96C200.776 370.72 192.936 373.6 183.443 373.6ZM264.534 373.6C259.84 373.6 255.467 372.64 251.414 370.72C247.467 368.8 244.32 366.027 241.974 362.4C239.627 358.667 238.454 354.4 238.454 349.6C238.454 341.707 241.547 335.413 247.734 330.72C254.027 326.027 263.2 323.68 275.254 323.68H294.614V322.4C294.614 315.36 292.854 310.293 289.334 307.2C285.92 304.107 280.534 302.56 273.174 302.56C269.12 302.56 265.494 302.88 262.294 303.52C259.2 304.16 255.734 305.12 251.894 306.4C251.04 306.613 250.347 306.72 249.814 306.72C248.214 306.72 246.827 306.133 245.654 304.96C244.48 303.787 243.894 302.347 243.894 300.64C243.894 297.76 245.28 295.733 248.054 294.56C257.12 290.72 266.347 288.8 275.734 288.8C283.094 288.8 289.28 290.293 294.294 293.28C299.414 296.267 303.147 300.16 305.494 304.96C307.947 309.653 309.174 314.773 309.174 320.32V365.6C309.174 367.627 308.427 369.333 306.934 370.72C305.547 372.107 303.84 372.8 301.814 372.8C299.787 372.8 298.08 372.107 296.694 370.72C295.307 369.333 294.614 367.627 294.614 365.6V361.44C286.72 369.547 276.694 373.6 264.534 373.6ZM269.974 360.8C274.667 360.8 279.2 359.68 283.574 357.44C287.947 355.093 291.627 352.213 294.614 348.8V335.36H277.174C261.067 335.36 253.014 339.573 253.014 348C253.014 351.84 254.294 354.933 256.854 357.28C259.52 359.627 263.894 360.8 269.974 360.8ZM340.778 372.8C338.751 372.8 337.044 372.107 335.658 370.72C334.271 369.333 333.578 367.627 333.578 365.6V296.96C333.578 294.933 334.271 293.227 335.658 291.84C337.044 290.347 338.751 289.6 340.778 289.6C342.804 289.6 344.511 290.347 345.898 291.84C347.391 293.227 348.138 294.933 348.138 296.96V303.52C352.191 299.04 356.564 295.467 361.258 292.8C365.951 290.133 371.498 288.8 377.898 288.8C383.764 288.8 388.831 290.187 393.098 292.96C397.471 295.733 400.778 299.52 403.018 304.32C405.364 309.12 406.538 314.4 406.538 320.16V365.6C406.538 367.627 405.791 369.333 404.298 370.72C402.911 372.107 401.204 372.8 399.178 372.8C397.151 372.8 395.444 372.107 394.058 370.72C392.671 369.333 391.978 367.627 391.978 365.6V321.76C391.978 308.747 386.111 302.24 374.378 302.24C369.044 302.24 364.244 303.627 359.978 306.4C355.818 309.173 351.871 312.907 348.138 317.6V365.6C348.138 367.627 347.391 369.333 345.898 370.72C344.511 372.107 342.804 372.8 340.778 372.8Z" fill="black"/>
</g>
<defs>
<filter id="filter0_d_9_128" x="0.299999" y="0.299999" width="575.4" height="197.4" filterUnits="userSpaceOnUse" color-interpolation-filters="sRGB">
<feFlood flood-opacity="0" result="BackgroundImageFix"/>
<feColorMatrix in="SourceAlpha" type="matrix" values="0 0 0 0 0 0 0 0 0 0 0 0 0 0 0 0 0 0 127 0" result="hardAlpha"/>
<feOffset dy="4"/>
<feGaussianBlur stdDeviation="15.85"/>
<feComposite in2="hardAlpha" operator="out"/>
<feColorMatrix type="matrix" values="0 0 0 0 0 0 0 0 0 0 0 0 0 0 0 0 0 0 0.5 0"/>
<feBlend mode="normal" in2="BackgroundImageFix" result="effect1_dropShadow_9_128"/>
<feBlend mode="normal" in="SourceGraphic" in2="effect1_dropShadow_9_128" result="shape"/>
</filter>
<filter id="filter1_d_9_128" x="137.843" y="238.72" width="289.495" height="155.68" filterUnits="userSpaceOnUse" color-interpolation-filters="sRGB">
<feFlood flood-opacity="0" result="BackgroundImageFix"/>
<feColorMatrix in="SourceAlpha" type="matrix" values="0 0 0 0 0 0 0 0 0 0 0 0 0 0 0 0 0 0 127 0" result="hardAlpha"/>
<feOffset/>
<feGaussianBlur stdDeviation="10.4"/>
<feComposite in2="hardAlpha" operator="out"/>
<feColorMatrix type="matrix" values="0 0 0 0 0 0 0 0 0 0 0 0 0 0 0 0 0 0 0.5 0"/>
<feBlend mode="normal" in2="BackgroundImageFix" result="effect1_dropShadow_9_128"/>
<feBlend mode="normal" in="SourceGraphic" in2="effect1_dropShadow_9_128" result="shape"/>
</filter>
<linearGradient id="paint0_linear_9_128" x1="199" y1="-39" x2="382" y2="594" gradientUnits="userSpaceOnUse">
<stop stop-color="white"/>
<stop offset="0.0001" stop-color="white"/>
<stop offset="1" stop-color="#A7A7A7"/>
</linearGradient>
<linearGradient id="paint1_linear_9_128" x1="199" y1="10.4648" x2="212.505" y2="188.957" gradientUnits="userSpaceOnUse">
<stop stop-color="#FF0000"/>
<stop offset="0.0001" stop-color="#FF0000"/>
<stop offset="1" stop-color="#960000"/>
</linearGradient>
</defs>
</svg>
