<svg width="542" height="582" viewBox="0 0 542 582" fill="none" xmlns="http://www.w3.org/2000/svg">
<rect x="15" y="35" width="512" height="512" rx="130" fill="url(#paint0_linear_9_136)"/>
<g filter="url(#filter0_d_9_136)">
<path d="M236.212 121.424C252.869 96.8017 289.131 96.8017 305.788 121.424L328.403 154.854C335.625 165.53 347.348 172.298 360.204 173.215L400.463 176.085C430.115 178.199 448.246 209.603 435.251 236.339L417.607 272.64C411.973 284.232 411.973 297.768 417.607 309.36L435.251 345.661C448.246 372.397 430.115 403.801 400.463 405.915L360.204 408.785C347.348 409.702 335.625 416.47 328.403 427.146L305.788 460.576C289.131 485.198 252.869 485.198 236.212 460.576L213.597 427.146C206.375 416.47 194.652 409.702 181.796 408.785L141.537 405.915C111.885 403.801 93.7538 372.397 106.749 345.661L124.393 309.36C130.027 297.768 130.027 284.232 124.393 272.64L106.749 236.339C93.7538 209.603 111.885 178.199 141.537 176.085L181.796 173.215C194.652 172.298 206.375 165.53 213.597 154.854L236.212 121.424Z" fill="#E7E7E7"/>
</g>
<circle cx="270.5" cy="290.5" r="64.5" stroke="url(#paint1_linear_9_136)" stroke-width="14"/>
<defs>
<filter id="filter0_d_9_136" x="0.181198" y="0.657272" width="541.638" height="580.685" filterUnits="userSpaceOnUse" color-interpolation-filters="sRGB">
<feFlood flood-opacity="0" result="BackgroundImageFix"/>
<feColorMatrix in="SourceAlpha" type="matrix" values="0 0 0 0 0 0 0 0 0 0 0 0 0 0 0 0 0 0 127 0" result="hardAlpha"/>
<feOffset/>
<feGaussianBlur stdDeviation="51.15"/>
<feComposite in2="hardAlpha" operator="out"/>
<feColorMatrix type="matrix" values="0 0 0 0 1 0 0 0 0 1 0 0 0 0 1 0 0 0 1 0"/>
<feBlend mode="normal" in2="BackgroundImageFix" result="effect1_dropShadow_9_136"/>
<feBlend mode="normal" in="SourceGraphic" in2="effect1_dropShadow_9_136" result="shape"/>
</filter>
<linearGradient id="paint0_linear_9_136" x1="182" y1="-32" x2="365" y2="601" gradientUnits="userSpaceOnUse">
<stop stop-color="#C6C6C6"/>
<stop offset="0.0001" stop-color="#DBDBDB"/>
<stop offset="1" stop-color="#595959"/>
</linearGradient>
<linearGradient id="paint1_linear_9_136" x1="270.5" y1="219" x2="270.5" y2="362" gradientUnits="userSpaceOnUse">
<stop stop-color="#C2C2C2"/>
<stop offset="1" stop-color="#898989"/>
</linearGradient>
</defs>
</svg>
